<?xml version="1.0" encoding="utf-8"?>
<!-- Generator: Adobe Illustrator 15.1.0, SVG Export Plug-In . SVG Version: 6.00 Build 0)  -->
<!DOCTYPE svg PUBLIC "-//W3C//DTD SVG 1.1//EN" "http://www.w3.org/Graphics/SVG/1.1/DTD/svg11.dtd">
<svg version="1.1" id="Layer_1" xmlns="http://www.w3.org/2000/svg" xmlns:xlink="http://www.w3.org/1999/xlink" x="0px" y="0px"
	 width="612px" height="792px" viewBox="0 0 612 792" enable-background="new 0 0 612 792" xml:space="preserve">
<g>
	
		<linearGradient id="SVGID_1_" gradientUnits="userSpaceOnUse" x1="-333.2534" y1="-140.2617" x2="-333.2534" y2="24.4287" gradientTransform="matrix(1.1979 0 0 1.1979 702.8496 422.8892)">
		<stop  offset="0" style="stop-color:#009DC3"/>
		<stop  offset="1" style="stop-color:#BBDDEA"/>
	</linearGradient>
	<path fill="url(#SVGID_1_)" d="M59.613,357.997c0,0,4.496,7.567,4.518,7.556l7.932-3.967l1.103-0.551l36.361,80.992l3.495,7.784
		l8.145-2.695l19.69-6.515l8.623-2.853l-2.281-8.756l-10.453-40.131c3.014-2.251,5.816-4.651,8.403-7.16
		c-0.573,4.822-0.279,9.678,1.031,14.324c2.737,9.718,9.113,17.363,17.954,21.526c9.549,4.497,21.205,4.388,31.979-0.3
		c5.409-2.369,10.223-5.753,14.285-9.801l1.485,15.992l34.46-5.434l-0.046-30.989l72.024,34.949v-34.564
		c2.91-0.265,5.855-0.754,8.817-1.5c7.942-2.001,14.706-4.718,20.735-8.392l-3.024,18.569l38.831,5.734l2.147-14.045l10.144,18.681
		l6.187-12.038l2.262,19.627l44.039,7.328l-2.339-14.828c6.02,0.616,12.379-0.245,18.515-2.625c1.47-0.574,2.894-1.234,4.279-1.955
		l-1.772,15.833l29.307,3.805l0.239,12.041l30.537,9.31l39.799-120.587l-41.435-9.641l-3.933,16.291l-3.637-17.978l-48.686-10.225
		l0.356,27.116l7.332,1.559l-0.55,4.911c-0.07-0.038-0.138-0.08-0.21-0.117c-9.073-4.733-20.347-5.094-30.972-0.972
		c-3.544,1.396-6.847,3.244-9.864,5.434l-7.314-46.375l-32.381,0.338l-0.907,5.337l-34.065,0.355l-3.899,23.944l-2.831-3.462
		c-8.256-10.097-20.222-15.576-33.479-15.717l28.92-15.874l-20.169-29.967l-36.458,42.469l6.306,7.642
		c-5.716,2.392-10.692,5.653-14.795,9.583l-31.251-27.458l-10.95,21.107l0.427-20.17l-48.876,16.142l1.247,26.314l8.316-2.261
		l1.238,13.336c-9.494-4.18-20.901-3.975-31.498,0.637c-3.133,1.383-6.067,3.104-8.772,5.096c1.836-8.146,1.401-16.155-1.686-23.26
		c-3.646-8.391-10.058-15.303-17.927-19.619c-5.516-3.622-12.093-5.853-18.985-6.555c-16.893-2.794-37.197,0.469-57.171,9.19
		c-7.347,3.208-14.205,6.863-20.383,10.866l-7.814,5.062l4.716,7.938 M262.252,352.416l9.253-9.104
		c-0.396,4.158-0.188,8.472,0.683,12.864L262.252,352.416z M353.111,345.35l-6.355-5.667l6.791-7.319l2.037-2.196L353.111,345.35z"
		/>
	<path fill="#FFCB05" d="M531.705,305.055l-3.941,16.249l-3.645-18.016l-48.792-10.733l0.358,27.12l7.348,1.636l-0.551,4.905
		c-0.071-0.039-0.139-0.082-0.21-0.12c-9.095-4.828-20.392-5.306-31.04-1.294c-3.552,1.359-6.862,3.172-9.887,5.33l-7.33-46.452
		h-32.452l-0.908,5.327h-34.141l-3.907,23.903l-2.838-3.492c-8.273-10.184-20.265-15.788-33.551-16.067l28.982-15.572
		l-20.213-30.178l-36.538,42.089l6.32,7.708c-5.729,2.333-10.716,5.542-14.828,9.428l-31.319-27.784l-10.974,20.993l0.428-20.166
		l-48.983,15.632l1.25,26.327l8.334-2.174l1.242,13.349c-9.515-4.279-20.947-4.193-31.567,0.308c-3.139,1.35-6.08,3.041-8.792,5.004
		c1.841-8.127,1.405-16.14-1.689-23.278c-3.654-8.429-10.08-15.409-17.966-19.806c-5.528-3.68-12.12-5.979-19.026-6.753
		c-16.93-2.97-37.278,0.082-57.296,8.594c-7.363,3.131-14.236,6.715-20.428,10.652l-7.831,4.98l4.726,7.987l14.661,24.775
		c0,0,4.505,7.614,4.527,7.604l7.949-3.885l1.105-0.54l36.44,81.371l3.502,7.82l8.162-2.609l19.734-6.31l8.642-2.763l-2.286-8.779
		l-10.476-40.24c3.02-2.22,5.829-4.59,8.421-7.072c-0.575,4.816-0.28,9.675,1.033,14.334c2.743,9.746,9.133,17.457,17.993,21.714
		c9.57,4.597,21.251,4.609,32.049,0.033c5.421-2.312,10.245-5.646,14.316-9.652l1.488,16.008l34.536-5.073l-0.045-30.99
		l72.182,35.701v-34.564c2.915-0.234,5.868-0.693,8.835-1.408c7.961-1.918,14.74-4.565,20.782-8.175l-3.031,18.537l38.916,6.139
		l2.152-14.022l10.165,18.786l6.2-11.973l2.268,19.651l44.134,7.787l-2.343-14.853c6.033,0.68,12.406-0.115,18.554-2.431
		c1.474-0.559,2.901-1.204,4.289-1.911l-1.775,15.815l29.369,4.11l0.24,12.043l30.605,9.629l39.886-120.173L531.705,305.055z
		 M131.404,349.978c-1.423-4.716-4.492-14.889-4.492-14.889c0.016,0.055-0.62-2.191-1.334-4.715
		c2.809-0.493,5.495-0.233,7.704,0.839c1.229,0.597,3.361,1.987,3.827,4.593C138.154,341.658,136.129,345.816,131.404,349.978z
		 M267.793,342.001l9.273-9.008c-0.397,4.154-0.188,8.471,0.684,12.871L267.793,342.001z M310.364,338.342
		c-2.449-4.479-1.931-10.197,1.709-14.173c3.514-3.839,8.903-4.922,13.481-3.151L310.364,338.342z M358.852,335.884l-6.37-5.733
		l6.806-7.248l2.042-2.174L358.852,335.884z"/>
	<g>
		<path fill="#004A94" d="M531.705,305.055l-3.941,16.249l-3.645-18.016l-48.792-10.733l0.358,27.12l7.348,1.636l-0.551,4.905
			c-0.071-0.039-0.139-0.082-0.21-0.12c-9.095-4.828-20.392-5.306-31.04-1.294c-3.552,1.359-6.862,3.172-9.887,5.33l-7.33-46.452
			h-32.452l-0.908,5.327h-34.141l-3.907,23.903l-2.838-3.492c-8.273-10.184-20.265-15.788-33.551-16.067l28.982-15.572
			l-20.213-30.178l-36.538,42.089l6.32,7.708c-5.729,2.333-10.716,5.542-14.828,9.428l-31.319-27.784l-10.974,20.993l0.428-20.166
			l-48.983,15.632l1.25,26.327l8.334-2.174l1.242,13.349c-9.515-4.279-20.947-4.193-31.567,0.308
			c-3.139,1.35-6.08,3.041-8.792,5.004c1.841-8.127,1.405-16.14-1.689-23.278c-3.654-8.429-10.08-15.409-17.966-19.806
			c-5.528-3.68-12.12-5.979-19.026-6.753c-16.93-2.97-37.278,0.082-57.296,8.594c-7.363,3.131-14.236,6.715-20.428,10.652
			l-7.831,4.98l4.726,7.987l14.661,24.775c0,0,4.505,7.614,4.527,7.604l7.949-3.885l1.105-0.54l36.44,81.371l3.502,7.82l8.162-2.609
			l19.734-6.31l8.642-2.763l-2.286-8.779l-10.476-40.24c3.02-2.22,5.829-4.59,8.421-7.072c-0.575,4.816-0.28,9.675,1.033,14.334
			c2.743,9.746,9.133,17.457,17.993,21.714c9.57,4.597,21.251,4.609,32.049,0.033c5.421-2.312,10.245-5.646,14.316-9.652
			l1.488,16.008l34.536-5.073l-0.045-30.99l72.182,35.701v-34.564c2.915-0.234,5.868-0.693,8.835-1.408
			c7.961-1.918,14.74-4.565,20.782-8.175l-3.031,18.537l38.916,6.139l2.152-14.022l10.165,18.786l6.2-11.973l2.268,19.651
			l44.134,7.787l-2.343-14.853c6.033,0.68,12.406-0.115,18.554-2.431c1.474-0.559,2.901-1.204,4.289-1.911l-1.775,15.815
			l29.369,4.11l0.24,12.043l30.605,9.629l39.886-120.173L531.705,305.055z M359.287,322.903l2.042-2.174l-2.478,15.155l-6.37-5.733
			L359.287,322.903z M333.43,261.01l10.685,14.521l-30.559,15.144l-2.112-3.199L333.43,261.01z M277.751,345.864l-9.958-3.863
			l9.273-9.008C276.67,337.147,276.878,341.464,277.751,345.864z M131.034,373.004l12.18,46.787L123.48,426.1l-40.509-90.455
			c-2.193,1.155-6.259,3.096-10.012,4.942l-14.661-24.774c5.849-3.72,12.23-7.027,19.035-9.92
			c19.105-8.124,37.298-10.534,51.89-7.974c5.144,0.589,10.613,2.124,15.373,5.292c6.567,3.688,11.579,8.94,14.483,15.641
			C166.132,335.116,154.349,358.613,131.034,373.004z M214.713,384.543c-4.099,5.684-9.766,10.421-16.468,13.28
			c-17.13,7.26-34.248,0-38.819-16.242c-4.436-15.745,5.877-34.437,22.474-41.573c10.583-4.486,21.209-3.423,28.835,1.753
			c4.717,3.202,8.29,7.974,9.987,13.991c0.186,0.654,0.337,1.314,0.475,1.976c0.474,2.292,0.663,4.626,0.586,6.963
			C221.553,371.643,218.992,378.609,214.713,384.543z M314.951,397.752l-71.625-35.825l0.125,37.53l-18.529,2.537l-1.305-15.5
			c5.734-9.795,7.824-21.356,4.825-31.935c-1.641-5.817-4.657-10.898-8.771-14.934l-2.658-31.567l-8.334,2.174l-0.362-7.972
			l29.766-8.86l1.812,30.688l21.927-30.804l21.428,20.398l-29.951,31.579l28.138,11.136c3.158,5.954,7.93,11.033,13.963,14.745
			c5.829,3.586,12.484,5.729,19.551,6.392V397.752z M330.627,367.12c-2.253,0.543-4.47,0.905-6.642,1.117
			c-16.434,1.602-30.211-5.959-35.458-18.192c-0.626-1.461-1.133-2.987-1.507-4.574c-2.429-10.318-0.369-19.521,4.727-26.737
			c1.474-2.087,3.208-4.001,5.156-5.734c4.802-4.275,10.93-7.414,17.87-9.087c15.672-3.777,29.465,1.013,37.89,11.382
			l-29.821,31.761c2.033,0.361,5.249-0.17,7.619-0.741c7.112-1.714,11.099-5.473,14.581-9.597l11.92,10.729l3.62,3.258
			c-1.587,1.637-3.212,3.142-4.894,4.532C348.827,360.909,340.993,364.622,330.627,367.12z M443.342,401.322l-24.383-3.725
			l-6.478-42.974l-9.171,23.71l-13.742-29.625h-0.148l-5.44,34.319l-22.883-3.979l3.208-19.152c0.863-0.806,1.719-1.632,2.56-2.499
			l7.402-7.639l-7.181-6.463l7.637-45.591h23.119l5.764,31.554l6.495-36.582h16.515l6.862,44.574
			c-8.735,9.946-12.962,23.299-10.044,35.539c2.253,9.462,8.086,17.113,16.424,21.542c0.845,0.449,1.716,0.847,2.597,1.22
			L443.342,401.322z M467.755,388.05c-5.921,2.23-11.766,2.691-17.007,1.66c-3.632-0.714-6.971-2.146-9.842-4.213
			c-4.592-3.304-7.991-8.219-9.464-14.402c-1.763-7.396-0.149-15.32,3.826-22.214c1.977-3.429,4.538-6.6,7.564-9.325
			c3.356-3.022,7.275-5.498,11.602-7.153c10.098-3.804,20.025-2.475,27.065,2.564c2.553,1.826,4.723,4.14,6.386,6.876
			c1.281,2.109,2.267,4.463,2.883,7.042c2.132,8.879-0.42,18.414-6.026,26.098c-2.388,3.273-5.327,6.211-8.702,8.618
			C473.503,385.41,470.726,386.923,467.755,388.05z M527.6,424.129l-16.933-5.064l-1.477-62.415l-8.52,48.152l-18.478-2.938
			l1.316-13.883c12.063-10.19,18.471-26.261,14.972-40.833c-1.542-6.462-4.853-12.07-9.549-16.359l1.552-16.348l-6.975-1.863
			l0.476-8.732l31.829,6.398L526.517,361l10.964-45.5l24.214,5.359L527.6,424.129z"/>
		<path fill="#004A94" d="M476.439,343.559c0.191,0.729,0.29,1.489,0.258,2.272c-0.192,4.729-4.655,8.388-9.969,8.172
			s-9.465-4.225-9.273-8.954c0.181-4.442,4.13-7.938,9.012-8.168c-0.938-0.202-1.903-0.336-2.9-0.377
			c-8.878-0.36-16.141,5.934-16.46,13.778c-0.338,8.349,6.39,15.211,15.134,15.567c8.879,0.36,16.143-5.934,16.481-14.283
			C478.84,348.67,477.99,345.91,476.439,343.559z"/>
		<path fill="#004A94" d="M206.87,353.118c0,4.733-4.311,8.57-9.629,8.57s-9.629-3.837-9.629-8.57c0-4.446,3.804-8.1,8.672-8.527
			c-0.944-0.163-1.915-0.259-2.912-0.259c-8.886,0-15.888,6.584-15.888,14.434c0,8.356,7.001,14.94,15.753,14.94
			c8.886,0,15.888-6.583,15.888-14.94c0-2.899-0.96-5.622-2.605-7.908C206.742,351.58,206.87,352.335,206.87,353.118z"/>
	</g>
	<path fill="#004A94" d="M310.769,337.125c-2.206-4.009-1.757-9.136,1.495-12.709c3.141-3.451,7.969-4.435,12.077-2.859
		L310.769,337.125z M312.264,324.417c-3.252,3.573-3.701,8.7-1.495,12.709l13.572-15.568
		C320.232,319.982,315.403,320.966,312.264,324.417z M331.87,319.221c-6.96-6.334-17.737-5.827-24.071,1.133
		c-6.333,6.959-5.826,17.737,1.133,24.071c0.579,0.526,1.191,0.988,1.818,1.42l22.327-25.409
		C332.698,320.016,332.298,319.609,331.87,319.221z M310.769,337.125c-2.206-4.009-1.757-9.136,1.495-12.709
		c3.141-3.451,7.969-4.435,12.077-2.859L310.769,337.125z"/>
	<path fill="#004A94" d="M143.581,334.362c-1.735-9.59-14.215-14.957-26.692-8.267l3.135,10.982l4.936,16.233l2.251,7.404
		C136.562,354.772,145.983,347.639,143.581,334.362z M131.164,349.004c-1.35-4.44-4.262-14.018-4.262-14.018
		c0.015,0.052-0.588-2.063-1.267-4.439c2.645-0.469,5.176-0.231,7.259,0.775c1.159,0.56,3.17,1.865,3.614,4.32
		C137.505,341.153,135.606,345.074,131.164,349.004z"/>
</g>
<g>
	<path d="M541.239,426.787h4.183v0.615h-1.736v4.541h-0.709v-4.541h-1.737V426.787z"/>
	<path d="M546.043,431.943v-5.156h1.001l1.481,4.359l1.47-4.359h0.989v5.156h-0.662V428.9c0-0.105,0.002-0.279,0.006-0.522
		c0.006-0.243,0.008-0.505,0.008-0.783l-1.471,4.349h-0.691l-1.48-4.349v0.158c0,0.126,0.002,0.319,0.008,0.577
		c0.006,0.259,0.009,0.449,0.009,0.57v3.043H546.043z"/>
</g>
<g>
	<path d="M541.239,456.845h4.183v0.614h-1.736V462h-0.709v-4.541h-1.737V456.845z"/>
	<path d="M546.043,462v-5.155h1.001l1.481,4.358l1.47-4.358h0.989V462h-0.662v-3.043c0-0.104,0.002-0.279,0.006-0.522
		c0.006-0.243,0.008-0.504,0.008-0.782L548.865,462h-0.691l-1.48-4.348v0.157c0,0.126,0.002,0.319,0.008,0.577
		c0.006,0.259,0.009,0.449,0.009,0.57V462H546.043z"/>
</g>
<path fill="#FFFFFF" d="M161.729,471.119c-0.602,3.127-1.132,6.472-1.369,9.096c-0.19,2.615,0.406,4.861,0.329,6.114
	c-0.165,1.26-1.611,2.267-2.573,2.497c-0.963,0.192-2.127,0.26-2.642-1.296c-0.256-0.757-0.315-2.356-0.151-4.365
	c0.206-2.34,0.478-4.065,0.728-5.434c-9.172,9.232-17.872,15.001-25.316,17.041c-6.699,1.495-9.315-2.221-8.902-8.559
	c1.289-11.065,10.937-27.564,18.109-36.968c1.626-2.062,4.266-4.201,5.583-4.731c0.98-0.362,2.009-0.283,2.409,0.958
	c0.268,0.683,0.365,1.78,0.487,2.726c0.043,1.118,0.15,1.996,0.125,2.37c-0.064,0.615-0.402,1.799-1.158,2.047
	c-0.338,0.092-0.723,0.194-1.195,0.18c-0.402-0.039-0.908-0.1-1.176-0.037c-0.338,0.096-1.233,0.401-2.381,1.781
	c-4.854,6.158-12.402,17.902-13.744,30.384c-0.287,4.229,1.351,5.377,4.179,4.769c4.333-1.232,14.105-8.026,20.667-15.558
	c0.438-0.431,0.711-0.792,1.092-1.277c-0.894,0.205-1.646,0.838-4.041,2.028c-2.396,1.268-3.425,2.259-5.144,2.665
	c-1.721,0.306-2.612-1.134-2.556-2.295c0.141-1.17,1.292-3.177,2.664-3.553c1.376-0.325,3.228-1.097,5.904-2.362
	c3.729-1.779,8.658-4.182,9.693-4.509c0.481-0.072,1.236,0.473,1.178,1.544C162.402,467.811,162.342,467.919,161.729,471.119z"/>
<path fill="#FFFFFF" d="M174.101,456.936c0.852-0.819,0.718-2.023,2.503-2.443c1.719-0.327,2.022,0.307,3.603,0.02
	c3.296-0.488,10.088,2.628,9.482,13.252c-1.232,10.571-9.38,16.303-15.137,17.578c-5.833,0.964-10.105-0.683-9.535-9.582
	C165.665,469.703,169.465,461.783,174.101,456.936z M182.253,470.409c0.387-5.564-1.329-10.512-3.241-10.365
	c-1.973,0.617-5.676,7.339-6.368,13.896c-0.4,5.449,1.035,7.029,3.16,6.73C178.266,480.077,181.643,476.051,182.253,470.409z"/>
<path fill="#FFFFFF" d="M192.735,460.031c-1.232,0.162-1.922-0.869-1.879-1.785c0.151-1.461,0.813-3.061,2.389-3.401
	c0.892-0.174,1.741-0.675,2.495-0.821c0.351-4.552-0.267-7.864,0.061-11.416c0.214-1.95,1.409-4.092,3.676-4.651
	c2.544-0.468,3.517,1.165,3.423,2.882c-0.126,1.722-0.132,7.423-0.42,11.018c0.903-0.332,1.361-0.919,2.456-1.123
	c1.438-0.188,2.306,0.921,2.261,2.678c-0.09,1.442-0.923,2.474-1.619,2.838c-1.064,0.545-2.282,0.884-2.981,1.141
	c-0.106,1.392-0.426,8.981-0.358,11.071c-0.054,2.172-0.294,9.393-0.377,10.538c-0.143,1.09-1.489,2.614-3.267,2.945
	c-2.188,0.305-3.72-0.172-3.879-1.392c-0.012-1.25,0.252-7.408,0.466-10.044c0.212-2.637,0.444-9.604,0.566-11.198
	C194.783,459.547,193.763,459.852,192.735,460.031z"/>
<path fill="#FFFFFF" d="M210.873,457.156c-1.23,0.132-1.916-0.947-1.87-1.891c0.153-1.504,0.82-3.143,2.393-3.451
	c0.89-0.154,1.739-0.649,2.492-0.779c0.365-4.711-0.237-8.209,0.106-11.946c0.223-2.052,1.424-4.28,3.687-4.784
	c2.538-0.4,3.499,1.365,3.399,3.17c-0.136,1.809-0.163,7.787-0.462,11.508c0.901-0.316,1.36-0.91,2.453-1.093
	c1.434-0.153,2.297,1.024,2.247,2.837c-0.094,1.487-0.927,2.525-1.623,2.883c-1.061,0.529-2.28,0.847-2.978,1.094
	c-0.109,1.429-0.442,9.167-0.376,11.281c-0.057,2.192-0.294,9.406-0.378,10.543c-0.142,1.076-1.482,2.553-3.258,2.842
	c-2.184,0.252-3.716-0.25-3.873-1.459c-0.016-1.237,0.249-7.373,0.464-10.024c0.213-2.654,0.456-9.758,0.582-11.392
	C212.915,456.713,211.9,456.996,210.873,457.156z"/>
<path fill="#FFFFFF" d="M240.189,471.626c-3.109,3.129-7.586,4.719-10.861,5.143c-3.271,0.337-4.954-0.226-4.901-2.471
	c0.384-3.979,3.328-7.651,7.252-11.217c3.181-3.089,6.718-6.115,7.676-6.983c0.587-0.519,1.177-0.867,1.659-1.005
	c-0.149-2.468-0.807-5.103-2.917-4.961c-1.911,0.299-4.604,2.37-5.828,3.762c-0.19,0.232-1.164,1.539-1.847,1.668
	c-1.158,0.095-2.8-0.853-2.704-2.872c0.118-1.137,0.615-1.942,1.273-2.617c2.169-1.969,8.645-6.004,11.104-6.436
	c2.116-0.24,5.779,0.292,7.487,11.3c0.771,4.444,0.349,10.449,0.243,11.709c-0.119,1.324-0.626,4.86-1.74,7.319
	c-0.401,0.771-2.381,1.279-3.132,1.366c-1.156,0.101-3.198,0.066-3.119-1.85C239.955,472.856,240.068,472.256,240.189,471.626z
	 M233.287,467.271c-1.284,1.738-1.521,2.543-1.621,3.622c-0.057,0.95,0.506,1.37,1.529,1.282c3.066-0.429,5.044-2.975,5.737-3.473
	c1-0.615,1.922-1.146,1.79-0.997c0.18-2.104,0.411-4.829,0.454-7.597C239.156,461.631,235.392,464.562,233.287,467.271z"/>
<path fill="#FFFFFF" d="M273.453,464.31c-0.189,2.476,0.206,3.687,2.509,3.612c2.375-0.191,4.502-1.626,5.701-2.282
	c1.111-0.687,3.05-3.282,4.95-3.473c1.895-0.04,2.884,0.973,2.841,2.035c-0.728,3.968-10.412,7.665-15.443,8.149
	c-6.906,0.202-7.872-3.078-7.632-6.558c1.577-13.069,13.728-24.55,16.239-25.084c1.762-0.081,2.9,0.687,2.718,3.468
	c-0.195,2.064-0.774,4.094-2.63,4.691C277.29,450.757,273.969,459.544,273.453,464.31z"/>
<path fill="#FFFFFF" d="M306.333,467.658c-3.089,2.9-7.534,4.11-10.786,4.265c-3.248,0.067-4.92-0.614-4.868-2.854
	c0.381-3.954,3.311-7.478,7.22-10.842c3.166-2.934,6.692-5.796,7.646-6.625c0.586-0.491,1.171-0.808,1.65-0.907
	c-0.138-2.609-0.781-5.481-2.868-5.534c-1.899,0.131-4.581,2.087-5.802,3.456c-0.192,0.23-1.163,1.527-1.841,1.604
	c-1.147-0.006-2.772-1.167-2.665-3.327c0.122-1.211,0.623-2.033,1.28-2.697c2.166-1.915,8.607-5.615,11.051-5.82
	c2.099-0.033,5.713,1.084,7.362,12.75c0.747,4.717,0.315,10.833,0.209,12.105c-0.123,1.339-0.626,4.88-1.734,7.248
	c-0.397,0.742-2.363,1.086-3.109,1.111c-1.147,0.005-3.176-0.19-3.098-2.099C306.099,468.877,306.212,468.281,306.333,467.658z
	 M299.483,462.679c-1.278,1.67-1.514,2.466-1.614,3.551c-0.055,0.955,0.505,1.425,1.517,1.417c3.051-0.187,5.013-2.6,5.701-3.047
	c0.993-0.541,1.913-1.014,1.778-0.868c0.183-2.129,0.42-4.909,0.469-7.776C305.325,457.361,301.58,460.078,299.483,462.679z"/>
<path fill="#FFFFFF" d="M318.338,448.579c-1.213-0.04-1.881-1.349-1.827-2.396c0.167-1.659,0.838-3.409,2.397-3.495
	c0.881-0.023,1.72-0.444,2.465-0.466c0.405-5.255-0.129-9.462,0.267-13.824c0.255-2.4,1.464-4.82,3.7-4.92
	c2.489,0.077,3.412,2.387,3.286,4.472c-0.156,2.084-0.269,8.969-0.598,13.091c0.89-0.206,1.346-0.791,2.429-0.81
	c1.41,0.068,2.246,1.535,2.189,3.521c-0.11,1.627-0.934,2.628-1.626,2.908c-1.053,0.413-2.256,0.574-2.947,0.737
	c-0.12,1.546-0.499,9.806-0.439,12.028c-0.065,2.285-0.312,9.599-0.393,10.718c-0.143,1.058-1.46,2.334-3.219,2.388
	c-2.159-0.038-3.675-0.73-3.833-1.943c-0.016-1.229,0.252-7.396,0.475-10.135c0.221-2.74,0.513-10.361,0.646-12.142
	C320.356,448.404,319.352,448.564,318.338,448.579z"/>
<path fill="#FFFFFF" d="M372.188,457.901c0.397-5.958-0.232-10.726-1.744-11.012c-2.774,0.096-7.541,6.695-8.098,11.121
	c-0.229,2.733-0.389,6.181-0.227,8.012c0.209,1.569,0.592,3.554,0.502,4.858c-0.16,1.363-1.244,1.951-2.528,1.978
	c-3.023-0.159-3.212-0.562-3.616-1.396c-0.499-1.926-1.016-12.44-1.079-15.733c0.122-6.738-0.524-21.876,0.246-31.942
	c0.738-7.793,2.358-10.381,5.858-10.219c2.068,0.236,3.067,2.52,2.889,5.285c-0.251,2.766-0.87,6.494-1.516,13.855
	c-0.399,5.073-0.235,11.582-0.5,16.549c1.092-3.374,5.766-8.952,11.694-8.746c4.06,0.531,6.168,6.96,5.297,18.51
	c-0.215,2.199-1.331,8.145-1.639,10.731c-0.184,1.722-1.162,3.178-4.325,3.048c-2.063-0.289-3.052-1.33-2.973-2.789
	C370.65,467.759,371.657,463.762,372.188,457.901z"/>
<path fill="#FFFFFF" d="M401.307,430.807c1.998-3.972,3.293-8.449,4.912-8.361c2.179,0.461,3.67,3.628,3.614,5.24
	c-0.127,0.961-1.418,4.559-3.081,7.658c-1.533,2.367-4.559,4.635-5.638,4.604c-1.532-0.219-2.839-1.295-2.745-3.157
	C398.606,434.933,400.563,432.177,401.307,430.807z"/>
<path fill="#FFFFFF" d="M406.043,464.667c-0.229,3.454,1.158,5.376,2.081,5.552c0.941,0.065,2.22-0.588,4.113-2.109
	c1.153-0.954,2.744-2.607,4.528-3.906c1.15-0.784,1.777-1.16,2.649-1.076c1.597,0.225,2.179,1.006,2.095,2.329
	c-0.383,2.417-4.803,4.92-7.431,6.404c-1.414,0.808-6.849,4.032-8.535,4.009c-4.379-0.689-5.934-6.242-5.642-10.667
	c0.001-0.022,0.004-0.043,0.005-0.066c-0.353,0.104-0.649,0.136-1.252,0.083c-0.595-0.101-1.118-1.217-1.075-1.988
	c0.188-1.955,0.734-2.331,2.756-3.102c0.044-0.511,0.086-0.998,0.129-1.51c0.911-8.986,4.778-15.868,6.672-15.912
	c7.178,1.134,11.27,7.605,11.218,10.599c-0.178,2.101-0.251,4.115-2.847,5.689c-2.075,1.173-8.194,3.831-9.372,4.591
	C406.104,463.956,406.074,464.296,406.043,464.667z M406.562,457.841c1.273-0.619,4.981-2.087,6.066-2.732
	c0.145-2.448-1.127-4.511-3.32-4.849C408.158,450.33,406.821,455.261,406.562,457.841z"/>
<path fill="#FFFFFF" d="M437.947,477.359c0.093-0.924,1.446-12.811,1.567-16.031c0.086-2.916-0.396-6.423-2.103-6.827
	c-1.82-0.096-6.015,4.003-6.588,8.822c-0.476,6.481,1.005,11.078,0.824,14.108c-0.216,1.32-2.732,1.646-3.672,1.552
	c-1.731-0.253-3.079-0.971-3.447-1.844c-0.456-2.008-0.59-8.346-0.603-10.57c0.089-7.007-0.665-11.547-0.456-14.584
	c0.318-2.454,2.845-3.731,3.853-3.646c2.396,0.38,3.692,1.156,3.751,6.699c2.105-3.445,5.634-6.6,9.049-6.169
	c2.388,0.467,4.487,2.322,5.16,5.564c2.428-2.855,6.933-4.155,10.336-3.586c3.275,0.844,4.633,6.28,4.629,10.228
	c-0.036,2.735-0.187,7.41-0.355,10.285c-0.166,2.872-0.011,6.023-0.144,7.799c-0.19,1.767-1.224,3.2-4.363,2.739
	c-3.114-0.592-3.409-2.076-3.282-3.772c0.33-3.773,1.18-10.854,1.484-14.276c0.249-2.99,0.523-7.172-1.568-7.715
	c-2.137-0.33-3.313,0.531-5.955,2.958c-0.036,0.305-0.176,7.976-0.321,10.644c-0.171,2.866-0.195,6.014-0.337,7.762
	c-0.18,1.741-1.027,3.133-4.105,2.796C438.507,479.84,437.841,479.021,437.947,477.359z"/>
<path fill="#FFFFFF" d="M488.358,484.619c-3.043,2.379-7.406,2.712-10.603,2.114c-3.176-0.686-4.812-1.861-4.751-4.22
	c0.399-4.123,3.265-6.962,7.089-9.303c3.095-2.091,6.529-3.871,7.454-4.392c0.571-0.305,1.141-0.446,1.609-0.425
	c-0.16-2.344-0.841-4.928-2.873-5.48c-1.873-0.345-4.465,0.693-5.645,1.613c-0.229,0.193-1.12,1.086-1.788,0.994
	c-1.121-0.273-2.729-1.716-2.644-3.58c0.107-1.038,0.587-1.625,1.224-2.039c2.088-1.117,8.324-2.551,10.732-2.097
	c2.046,0.501,5.651,1.84,7.385,12.486c0.778,4.351,0.369,10.208,0.264,11.473c-0.123,1.328-0.636,4.923-1.739,7.296
	c-0.401,0.738-2.323,0.657-3.059,0.508c-1.121-0.267-3.104-1.004-3.016-3.056C488.121,485.873,488.236,485.26,488.358,484.619z
	 M481.656,477.924c-1.256,1.382-1.491,2.149-1.59,3.252c-0.057,0.976,0.489,1.607,1.482,1.831c3.005,0.507,4.924-1.563,5.6-1.866
	c0.977-0.329,1.896-0.609,1.745-0.479c0.178-2.117,0.409-4.788,0.441-7.454C487.374,474.062,483.707,475.795,481.656,477.924z"/>
<path fill="#FFFFFF" d="M504.543,444.307c1.505,0.524,3.417,1.943,3.424,3.635c-0.103,1.759-0.737,4.979-1.124,9.301
	c-0.23,3.597,0.678,15.819,0.606,19.701c-0.047,5.142,1.185,12.094,1.089,14.078c-0.226,1.969-1.593,2.547-3.651,2.077
	c-1.912-0.499-4.095-1.542-4.172-3.327c0.021-2.112-0.425-8.407-0.329-14.54c0.052-6.14-1.315-17.11-0.703-25.459
	C500.206,444.529,501.9,443.511,504.543,444.307z"/>
<path fill="#FFFFFF" d="M517.054,448.507c1.497,0.547,3.42,1.939,3.435,3.526c-0.092,1.648-0.71,4.656-1.08,8.779
	c-0.214,3.438,0.716,15.382,0.645,19.247c-0.042,5.116,1.177,12.203,1.075,14.233c-0.23,2.014-1.593,2.59-3.65,2.074
	c-1.907-0.541-4.089-1.648-4.159-3.478c0.02-2.159-0.41-8.571-0.317-14.671c0.048-6.104-1.348-16.834-0.766-24.729
	C512.729,448.537,514.415,447.665,517.054,448.507z"/>
<path fill="#FFFFFF" d="M337.98,462.915c-0.189,2.494,0.205,3.747,2.488,3.854c2.363-0.006,4.473-1.29,5.664-1.858
	c1.105-0.604,3.028-3.074,4.92-3.117c1.882,0.11,2.863,1.216,2.82,2.28c-0.726,3.964-10.341,6.915-15.346,7.008
	c-6.851-0.341-7.817-3.714-7.575-7.222c1.586-13.15,13.658-23.922,16.166-24.225c1.746,0.09,2.874,0.991,2.688,3.804
	c-0.196,2.088-0.771,4.095-2.617,4.539C341.802,449.418,338.498,458.119,337.98,462.915z"/>
<g>
	<g>
		<path fill="#2D59A9" d="M134.552,484.049c-1.401,1.037-2.713,1.922-3.859,2.621c0.539-2.906,1.425-5.744,2.495-8.404
			c-0.031,0.176-0.059,0.352-0.078,0.523c-0.015,0.132-0.024,0.264-0.03,0.396C133.014,480.932,133.551,482.653,134.552,484.049z
			 M160.755,465.129c-1.464-1.304-3.375-1.881-5.243-1.581c-0.287,0.046-0.57,0.114-0.846,0.204
			c-1.026,0.337-2.813,1.189-8.028,3.756l-2.134,1.049c-1.473,0.715-3.579,1.707-4.657,1.973c-0.064,0.016-0.128,0.033-0.192,0.052
			c-1.791,0.511-3.271,1.671-4.374,3.084c2.519-4.986,5.294-8.911,6.743-10.819c0.932-0.064,1.662-0.259,2.047-0.367
			c0.096-0.027,0.192-0.057,0.287-0.089c3.196-1.089,4.59-4.188,4.828-6.725c0.006-0.067,0.012-0.135,0.015-0.202
			c0.033-0.582-0.011-1.125-0.063-1.754c-0.028-0.348-0.061-0.74-0.081-1.15c-0.007-0.157-0.026-0.342-0.047-0.498l-0.058-0.429
			c-0.135-1.022-0.298-2.172-0.716-3.302c-0.645-1.859-1.919-3.326-3.611-4.128c-1.784-0.846-3.886-0.886-5.918-0.112
			c-0.051,0.02-0.101,0.039-0.151,0.061c-2.603,1.08-5.899,4.113-7.678,6.418c-5.814,7.786-17.082,25.895-18.492,39.199
			c-0.01,0.093-0.018,0.186-0.022,0.279c-0.366,6.675,2.066,10.18,4.17,11.944c1.997,1.675,5.597,3.386,11.406,2.027
			c0.086-0.021,0.171-0.043,0.256-0.066c5.651-1.612,11.62-4.945,17.827-9.934c1.246,2.553,4.07,4.871,8.569,3.923
			c0.069-0.014,0.137-0.029,0.205-0.047c2.958-0.74,6.186-3.441,6.633-7.167c0.015-0.125,0.026-0.25,0.032-0.376
			c0.05-0.985-0.067-1.91-0.192-2.889c-0.127-0.996-0.258-2.026-0.195-3.038c0.167-2.086,0.586-5.062,1.171-8.284
			c0.001-0.006,0.29-1.586,0.29-1.586c0.314-1.709,0.409-2.225,0.519-3.629c0.005-0.063,0.009-0.127,0.011-0.191
			C163.161,468.563,162.318,466.521,160.755,465.129z M148.156,448.092c0.032,0.078,0.052,0.159,0.082,0.238
			c0.011,0.03,0.029,0.057,0.039,0.088C148.24,448.308,148.2,448.199,148.156,448.092z"/>
		<path fill="#2D59A9" d="M184.222,456.629c-2.93-2.623-6.87-3.917-10.291-3.388c-0.69-0.108-1.966-0.307-3.792,0.061
			c-0.077,0.015-0.154,0.033-0.23,0.051c-3.499,0.862-4.826,3.274-5.338,4.232c-5.204,5.667-9.293,14.479-9.976,21.554
			c-0.008,0.078-0.013,0.155-0.018,0.234c-0.305,5.675,1.06,9.897,4.054,12.551c2.847,2.523,6.834,3.355,11.852,2.473
			c0.098-0.018,0.196-0.037,0.293-0.06c8.168-1.896,17.565-9.644,18.895-22.17c0.012-0.107,0.02-0.217,0.025-0.325
			C190.078,463.658,186.93,459.052,184.222,456.629z"/>
		<path fill="#2D59A9" d="M204.079,450.996c-0.548-0.483-1.156-0.865-1.802-1.156c0.006-0.425,0.013-0.857,0.019-1.255
			c0.018-1.3,0.036-2.644,0.069-3.173c0.124-2.773-0.882-5.231-2.754-6.846c-1.896-1.634-4.45-2.239-7.191-1.706
			c-0.108,0.021-0.215,0.046-0.322,0.073c-4.199,1.081-7.209,4.769-7.669,9.392c-0.176,2.141-0.084,4.036,0.004,5.869
			c0.033,0.674,0.061,1.336,0.081,2.001c-2.689,1.35-4.452,4.066-4.776,7.537c-0.009,0.104-0.016,0.207-0.02,0.311
			c-0.079,2.133,0.813,4.251,2.385,5.666c0.648,0.584,1.396,1.025,2.195,1.33c-0.064,1.87-0.137,3.759-0.209,4.793
			c-0.189,2.668-0.397,8.891-0.368,10.345c0.004,0.221,0.022,0.441,0.053,0.659c0.259,1.833,1.224,3.457,2.717,4.572
			c1.295,0.967,3.627,2.001,7.378,1.439c0.083-0.013,0.167-0.027,0.25-0.043c3.887-0.767,7.147-4.064,7.583-7.672
			c0.013-0.106,0.022-0.213,0.029-0.32c0.083-1.343,0.246-8.666,0.274-10.591c0.001-0.105,0-0.211-0.004-0.316
			c-0.046-1.083,0.021-4.261,0.1-6.831c0.034-0.018,0.067-0.031,0.102-0.049c2.592-1.391,4.342-4.285,4.504-7.396
			c0.004-0.068,0.006-0.136,0.007-0.205C206.752,454.812,205.817,452.528,204.079,450.996z"/>
		<path fill="#2D59A9" d="M221.839,448.104c-0.547-0.494-1.155-0.889-1.804-1.189c0.01-0.537,0.019-1.064,0.027-1.564
			c0.024-1.456,0.046-2.831,0.083-3.405c0.13-2.845-0.875-5.365-2.75-7.025c-1.854-1.642-4.352-2.297-7.033-1.847
			c-0.114,0.02-0.228,0.042-0.341,0.068c-4.267,0.997-7.329,4.749-7.801,9.561c-0.181,2.214-0.097,4.198-0.016,6.117
			c0.031,0.723,0.059,1.461,0.076,2.213c-2.703,1.34-4.468,4.075-4.792,7.608c-0.009,0.098-0.015,0.195-0.019,0.294
			c-0.081,2.136,0.798,4.268,2.351,5.702c0.651,0.601,1.405,1.057,2.215,1.373c-0.069,1.966-0.146,3.992-0.222,5.072
			c-0.192,2.711-0.398,8.925-0.366,10.341c0.005,0.213,0.022,0.427,0.052,0.639c0.504,3.598,3.781,6.878,9.965,6.099
			c0.084-0.012,0.168-0.023,0.252-0.038c3.947-0.686,7.256-3.948,7.699-7.59c0.013-0.105,0.022-0.212,0.029-0.317
			c0.083-1.31,0.244-8.647,0.274-10.595c0.001-0.105,0-0.21-0.004-0.315c-0.046-1.102,0.027-4.366,0.11-6.996
			c0.018-0.01,0.035-0.017,0.053-0.024c2.624-1.383,4.39-4.3,4.558-7.462c0.003-0.065,0.006-0.132,0.007-0.198
			C224.489,451.979,223.563,449.664,221.839,448.104z"/>
		<path fill="#2D59A9" d="M246.213,457.433c-2.297-13.876-8.64-16.083-13.554-15.476c-0.112,0.015-0.223,0.031-0.333,0.052
			c-4.179,0.778-11.488,5.881-13.555,7.795c-0.082,0.075-0.161,0.153-0.237,0.233c-1.604,1.677-2.521,3.655-2.728,5.882
			c-0.01,0.102-0.016,0.203-0.02,0.304c-0.091,2.445,0.803,4.685,2.518,6.309c0.555,0.525,1.188,0.958,1.863,1.305
			c-3.242,3.219-6.893,7.767-7.372,13.328c-0.012,0.133-0.019,0.267-0.02,0.4c-0.032,2.375,0.842,4.49,2.459,5.954
			c2.585,2.34,6.093,2.246,8.507,1.973c0.047-0.006,0.095-0.011,0.142-0.019c1.221-0.17,4.322-0.74,7.711-2.411
			c1.484,0.794,3.289,1.098,5.395,0.894c0.051-0.005,0.102-0.011,0.153-0.018c1.274-0.159,5.565-0.944,7.291-4.35
			c0.045-0.09,0.088-0.18,0.128-0.271c1.625-3.688,2.041-8.446,2.083-8.977C246.738,469.054,247.153,462.534,246.213,457.433z
			 M228.688,470.955c0.001-0.002,0.003-0.003,0.004-0.005c0,0.028,0,0.057,0,0.085C228.692,471.008,228.687,470.981,228.688,470.955
			z M228.739,471.752c0.006,0.046,0.015,0.09,0.022,0.134h0C228.753,471.842,228.746,471.798,228.739,471.752z"/>
		<path fill="#2D59A9" d="M285.304,461.953c-1.595-1.593-3.857-2.425-6.371-2.345c-0.144,0.005-0.288,0.015-0.432,0.031
			c-2.091,0.231-3.755,1.253-5.067,2.322c1.053-2.32,2.389-4.211,3.458-4.597c2.578-0.86,5.761-3.188,6.282-9.396
			c0.004-0.053,0.008-0.105,0.011-0.158c0.163-2.957-0.611-5.312-2.302-7.001c-1.096-1.095-3.064-2.361-6.217-2.183
			c-0.3,0.017-0.599,0.058-0.893,0.124c-5.103,1.142-18.304,14.679-19.94,29.524c-0.01,0.093-0.019,0.188-0.024,0.281
			c-0.219,3.736,0.744,6.724,2.861,8.882c2.361,2.407,5.767,3.488,10.41,3.305c0.123-0.005,0.246-0.014,0.368-0.027
			c4.818-0.515,18.485-4.478,19.903-12.689c0.044-0.256,0.07-0.514,0.078-0.772C287.488,465.264,286.734,463.381,285.304,461.953z"
			/>
		<path fill="#2D59A9" d="M310.993,453.111c-1.737-11.438-6.091-17.193-12.927-17.018c-0.125,0.004-0.25,0.012-0.375,0.023
			c-4.321,0.406-11.832,5.301-13.949,7.211c-0.091,0.082-0.179,0.168-0.264,0.255c-1.625,1.675-2.554,3.694-2.762,6.003
			c-0.008,0.092-0.014,0.185-0.018,0.277c-0.097,2.456,0.756,4.748,2.403,6.453c0.674,0.698,1.456,1.256,2.293,1.674
			c-3.342,3.103-7.233,7.609-7.73,13.383c-0.011,0.134-0.018,0.268-0.02,0.402c-0.038,2.931,1.228,4.797,2.295,5.845
			c2.428,2.384,5.839,2.562,8.194,2.487c0.049-0.001,0.098-0.004,0.146-0.006c1.224-0.071,4.308-0.391,7.7-1.776
			c1.428,0.909,3.209,1.354,5.316,1.323c0.056-0.001,0.111-0.002,0.167-0.005c1.333-0.059,5.824-0.528,7.679-4.074
			c0.047-0.089,0.091-0.18,0.133-0.271c1.595-3.504,2.033-8.079,2.104-8.96C311.475,465.033,311.895,458.454,310.993,453.111z
			 M298.9,460.948c-0.108,0.008-0.216,0.017-0.323,0.029c0.011-0.01,0.022-0.02,0.033-0.029
			C298.707,460.942,298.804,460.949,298.9,460.948z M293.469,466.139c-0.002,0.037,0.001,0.072,0,0.108
			C293.47,466.211,293.466,466.175,293.469,466.139z M293.503,467.108c-0.001-0.01-0.004-0.02-0.005-0.028
			C293.5,467.089,293.502,467.099,293.503,467.108z"/>
		<path fill="#2D59A9" d="M325.237,438.513c0.028-1.018,0.054-2.02,0.076-2.946c0.042-1.713,0.08-3.331,0.127-4.041
			c0.147-2.936-0.773-5.648-2.521-7.522c-1.576-1.692-3.757-2.65-6.139-2.699c-0.138-0.003-0.277-0.001-0.414,0.007
			c-4.705,0.258-8.228,4.213-8.768,9.842c-0.199,2.487-0.142,4.796-0.086,7.028c0.022,0.888,0.042,1.793,0.05,2.712
			c-2.315,1.078-4.427,3.479-4.813,7.772c-0.008,0.089-0.014,0.178-0.018,0.267c-0.088,2.142,0.69,4.252,2.136,5.792
			c0.684,0.729,1.488,1.294,2.367,1.681c-0.087,2.37-0.19,5.02-0.28,6.31c-0.201,2.834-0.408,9.013-0.374,10.453
			c0.005,0.212,0.022,0.424,0.051,0.635c0.424,3.025,3.087,6.575,9.201,6.617c0.088,0.001,0.176,0,0.263-0.004
			c4.223-0.172,7.903-3.339,8.383-7.209c0.014-0.11,0.023-0.222,0.03-0.333c0.082-1.326,0.253-8.896,0.286-10.75
			c0.002-0.102,0.002-0.203-0.002-0.304c-0.043-1.15,0.045-4.612,0.142-7.429c2.641-1.302,4.419-4.159,4.606-7.464
			c0.004-0.07,0.007-0.14,0.008-0.21C329.619,442.971,327.917,439.921,325.237,438.513z"/>
		<path fill="#2D59A9" d="M342.521,458.596c-0.15-0.008-0.302-0.009-0.451-0.004c-2.521,0.084-4.495,1.365-5.917,2.531
			c1.066-2.697,2.583-4.901,3.654-5.2c-0.044,0.013-0.088,0.024-0.133,0.036c2.245-0.565,6.098-2.533,6.67-9.364
			c0.005-0.052,0.009-0.104,0.012-0.156c0.159-2.88-0.555-5.216-2.123-6.944c-1.005-1.106-2.833-2.451-5.834-2.574
			c-0.314-0.013-0.63,0.001-0.942,0.043c-5.896,0.772-18.769,14.275-20.365,28.768c-0.01,0.093-0.018,0.188-0.024,0.28
			c-0.08,1.368-0.324,5.53,2.716,8.884c2.218,2.448,5.606,3.778,10.071,3.955c0.125,0.004,0.252,0.005,0.378,0.002
			c4.896-0.143,18.79-3.156,20.245-11.602c0.043-0.255,0.069-0.512,0.078-0.77C350.684,462.214,347.229,458.824,342.521,458.596z"/>
		<path fill="#2D59A9" d="M365.252,437.543c-0.174-0.021-0.349-0.033-0.523-0.038c-2.075-0.052-4.018,0.352-5.802,1.05
			c0.028-0.936,0.065-1.848,0.122-2.69c0.342-4.413,0.683-7.419,0.957-9.833c0.159-1.397,0.296-2.604,0.384-3.693
			c0.004-0.048,0.008-0.096,0.011-0.145c0.321-5.928-2.896-10.426-7.824-10.938c-0.124-0.013-0.248-0.021-0.371-0.026
			c-10.028-0.361-10.978,10.889-11.334,15.124c-0.465,6.996-0.25,16.012-0.077,23.257c0.083,3.434,0.153,6.398,0.138,8.468
			c-0.001,0.068,0,0.137,0.002,0.206c0.004,0.128,0.554,13.536,1.404,16.685c0.096,0.352,0.226,0.693,0.389,1.021
			c1.895,3.803,5.121,4.25,8.263,4.383c0.135,0.006,0.269,0.007,0.403,0.003c2.656-0.082,4.911-1.277,6.31-3.148
			c1.265,1.46,3.184,2.568,5.854,2.914c0.179,0.023,0.359,0.037,0.539,0.043c5.512,0.169,9.386-2.979,9.868-8.019
			c0.109-1.005,0.405-2.909,0.689-4.75c0.358-2.318,0.698-4.509,0.813-5.83C376.688,442.856,370.585,438.186,365.252,437.543z"/>
		<path fill="#2D59A9" d="M397.004,419.582c-0.279-0.056-0.563-0.09-0.848-0.103c-4.959-0.216-6.951,4.479-8.553,8.251
			c-0.427,1.003-0.867,2.036-1.334,2.994c-0.116,0.214-0.31,0.541-0.507,0.873c-1.409,2.374-2.598,4.53-2.875,6.888
			c-0.017,0.142-0.027,0.282-0.033,0.424c-0.178,4.474,2.98,8.155,7.51,8.756c0.206,0.026,0.414,0.042,0.622,0.046
			c4.624,0.087,9.057-5.256,10.244-7.135c0.08-0.127,0.155-0.258,0.226-0.391c1.492-2.852,3.267-7.267,3.531-9.426
			c0.021-0.179,0.035-0.357,0.039-0.537C405.114,426.552,402.309,420.649,397.004,419.582z"/>
		<path fill="#2D59A9" d="M412.78,460.093c0.624-1.666,0.744-3.24,0.825-4.354l0.016-0.217c0.01-0.122,0.015-0.25,0.016-0.37
			c0.04-5.606-5.957-14.317-15.812-15.771c-0.326-0.048-0.656-0.067-0.986-0.056c-6.754,0.224-10.523,11.395-11.535,19.266
			c-1.531,1.216-2.683,3.014-2.938,5.982c-0.007,0.076-0.012,0.152-0.016,0.228c-0.094,2.11,0.805,4.482,2.483,6.032
			c0.815,5.704,4.002,11.074,10.158,11.979c0.26,0.038,0.521,0.058,0.785,0.058c2.294,0.008,4.899-1.093,10.723-4.531l0.402-0.237
			c3.631-2.099,9.151-5.291,9.891-10.31c0.024-0.169,0.042-0.339,0.051-0.51C417.015,464.055,415.451,461.418,412.78,460.093z
			 M388.86,461.54c-0.099,0.023-0.197,0.04-0.295,0.069C388.664,461.58,388.763,461.559,388.86,461.54z"/>
		<path fill="#2D59A9" d="M454.769,462.32c-0.058-6.127-2.405-13.763-8.835-15.35c-0.154-0.039-0.311-0.069-0.469-0.095
			c-3.051-0.479-6.326,0.011-9.228,1.241c-1.599-1.521-3.581-2.583-5.827-2.998c-0.123-0.022-0.246-0.042-0.37-0.057
			c-2.677-0.309-5.173,0.423-7.371,1.734c-1.207-1.023-2.821-1.777-5.003-2.102c-0.133-0.019-0.266-0.034-0.4-0.044
			c-4.031-0.299-9.005,3.256-9.625,8.462c-0.014,0.109-0.023,0.221-0.029,0.33c-0.103,1.748,0.041,3.683,0.207,5.921
			c0.181,2.441,0.385,5.208,0.376,8.675c0.024,1.535,0.176,8.818,0.849,11.645c0.074,0.313,0.177,0.621,0.305,0.916
			c1.171,2.699,3.983,4.539,7.717,5.045c0.081,0.012,0.162,0.021,0.243,0.028c2.303,0.209,4.806-0.347,6.682-1.676
			c1.2,1.275,3.088,2.334,6.058,2.786c0.095,0.014,0.19,0.026,0.286,0.035c2.877,0.285,5.261-0.333,7.086-1.839
			c0.059-0.048,0.119-0.107,0.179-0.16c1.322,1.716,3.394,2.879,6.123,3.369c0.077,0.014,0.153,0.026,0.23,0.036
			c2.967,0.404,5.451-0.167,7.387-1.698c1.244-0.985,2.793-2.819,3.098-5.964c0.006-0.059,0.011-0.118,0.015-0.177
			c0.067-1.031,0.053-2.228,0.036-3.613c-0.016-1.312-0.032-2.8,0.031-4.125C454.662,469.673,454.761,464.969,454.769,462.32z"/>
		<path fill="#2D59A9" d="M489.357,469.952c-1.697-9.794-5.365-15.066-11.527-16.507c-0.096-0.022-0.193-0.043-0.29-0.06
			c-3.915-0.696-11.263,1.192-14.116,2.758c-0.134,0.074-0.266,0.153-0.394,0.238c-2.132,1.412-3.386,3.521-3.624,6.099
			c-0.01,0.104-0.017,0.211-0.021,0.316c-0.124,3.49,1.864,6.401,4.358,7.971c-2.804,2.076-6.75,5.9-7.273,11.939
			c-0.011,0.129-0.018,0.258-0.02,0.388c-0.046,2.872,1.076,7.935,9.107,9.581c0.049,0.01,0.099,0.02,0.148,0.027
			c2.631,0.465,5.271,0.407,7.73-0.105c1.248,1.281,2.963,2.23,5.033,2.699c0.057,0.013,0.114,0.024,0.172,0.035
			c2.982,0.576,7.107,0.042,8.912-3.36c0.055-0.103,0.104-0.205,0.152-0.31c1.62-3.581,2.058-8.448,2.103-8.991
			C489.94,480.881,490.282,474.826,489.357,469.952z M476.289,475.843c0.509-0.116,1.03-0.161,1.555-0.131v0.001
			C477.308,475.701,476.783,475.754,476.289,475.843z M472.018,481.082c-0.002,0.044,0,0.087,0,0.131
			C472.018,481.169,472.017,481.126,472.018,481.082z"/>
		<path fill="#2D59A9" d="M501.93,486.009c-0.331-2.688-0.743-6.032-0.746-8.637c0.015-1.823-0.173-5.038-0.39-8.761
			c-0.221-3.784-0.493-8.478-0.413-10.178c0.174-2.177,0.424-4.094,0.625-5.636c0.188-1.444,0.338-2.585,0.387-3.578
			c0.005-0.116,0.008-0.231,0.005-0.348c-0.062-4.351-3.635-7.492-7.147-8.676c-0.073-0.024-0.148-0.049-0.224-0.07
			c-3.528-1.023-5.997-0.059-7.445,0.932c-3.309,2.261-4.036,6.379-4.296,9.28c-0.004,0.048-0.008,0.097-0.011,0.145
			c-0.343,5.436,0.104,11.653,0.497,17.141c0.223,3.113,0.434,6.055,0.438,8.158c-0.021,3.969,0.182,7.975,0.33,10.9
			c0.075,1.465,0.139,2.73,0.139,3.333c0,0.099,0.002,0.197,0.008,0.296c0.101,1.891,1.112,6.479,8.292,8.276
			c0.056,0.015,0.112,0.027,0.169,0.04c3.445,0.748,5.75-0.241,7.077-1.201c1.775-1.286,2.891-3.307,3.139-5.691
			c0.013-0.12,0.021-0.241,0.026-0.362C502.433,490.174,502.262,488.709,501.93,486.009z"/>
		<path fill="#2D59A9" d="M514.299,488.93c-0.324-2.703-0.729-6.066-0.733-8.636c0.016-1.854-0.192-5.249-0.412-8.842
			c-0.22-3.6-0.493-8.062-0.424-9.65c0.166-2.051,0.406-3.843,0.599-5.284c0.186-1.379,0.332-2.468,0.375-3.436
			c0.006-0.117,0.007-0.234,0.005-0.353c-0.081-4.185-3.614-7.294-7.08-8.518c-0.07-0.025-0.142-0.048-0.214-0.07
			c-3.599-1.108-6.104-0.166-7.571,0.82c-3.267,2.194-3.973,6.127-4.22,8.895c-0.004,0.046-0.008,0.094-0.01,0.141
			c-0.324,5.111,0.127,11.099,0.525,16.382c0.234,3.126,0.457,6.08,0.463,8.207c-0.02,3.934,0.177,7.98,0.321,10.936
			c0.073,1.501,0.136,2.799,0.137,3.428c0.001,0.089,0.003,0.178,0.007,0.266c0.093,1.887,1.074,6.482,8.169,8.418
			c0.055,0.016,0.109,0.029,0.165,0.043c3.444,0.826,5.773-0.136,7.122-1.089c1.815-1.285,2.956-3.335,3.21-5.772
			c0.013-0.118,0.021-0.237,0.025-0.355C514.807,493.238,514.625,491.644,514.299,488.93z"/>
	</g>
	<path fill="#FFFFFF" d="M156.819,475.154c-0.558,3.07-1.044,6.353-1.25,8.927c-0.16,2.564,0.446,4.759,0.384,5.988
		c-0.148,1.237-1.557,2.237-2.497,2.474c-0.942,0.198-2.082,0.276-2.602-1.244c-0.258-0.738-0.333-2.305-0.191-4.276
		c0.178-2.294,0.427-3.988,0.658-5.331c-8.895,9.14-17.362,14.88-24.637,16.954c-6.549,1.532-9.15-2.082-8.809-8.297
		c1.151-10.856,10.439-27.122,17.374-36.409c1.572-2.038,4.137-4.159,5.423-4.692c0.957-0.365,1.966-0.299,2.37,0.914
		c0.27,0.666,0.375,1.741,0.505,2.666c0.053,1.096,0.167,1.954,0.146,2.321c-0.057,0.604-0.376,1.767-1.114,2.018
		c-0.33,0.094-0.707,0.197-1.169,0.188c-0.394-0.034-0.891-0.088-1.153-0.023c-0.33,0.097-1.204,0.405-2.315,1.77
		c-4.694,6.083-11.973,17.669-13.162,29.913c-0.238,4.147,1.378,5.255,4.144,4.631c4.233-1.253,13.742-8.008,20.096-15.454
		c0.425-0.426,0.689-0.784,1.058-1.264c-0.874,0.211-1.604,0.838-3.939,2.029c-2.335,1.266-3.334,2.247-5.014,2.663
		c-1.683,0.317-2.571-1.084-2.528-2.224c0.127-1.147,1.234-3.126,2.575-3.508c1.346-0.332,3.152-1.107,5.762-2.375
		c3.636-1.78,8.442-4.185,9.453-4.516c0.471-0.076,1.215,0.451,1.17,1.502C157.445,471.906,157.387,472.012,156.819,475.154z"/>
	<path fill="#FFFFFF" d="M168.799,461.131c0.827-0.812,0.684-1.991,2.429-2.42c1.681-0.338,1.985,0.28,3.531-0.017
		c3.226-0.513,9.913,2.474,9.426,12.891c-1.101,10.371-9.027,16.07-14.656,17.378c-5.706,1.003-9.909-0.568-9.44-9.295
		C160.661,473.728,164.305,465.927,168.799,461.131z M176.924,474.252c0.323-5.457-1.408-10.287-3.281-10.125
		c-1.927,0.625-5.488,7.25-6.1,13.681c-0.337,5.345,1.085,6.879,3.164,6.564C173.114,483.767,176.383,479.786,176.924,474.252z"/>
	<path fill="#FFFFFF" d="M187.091,463.977c-1.206,0.171-1.892-0.832-1.859-1.73c0.134-1.434,0.766-3.008,2.307-3.357
		c0.872-0.179,1.7-0.679,2.437-0.83c0.298-4.465-0.341-7.705-0.056-11.188c0.19-1.914,1.339-4.024,3.555-4.595
		c2.489-0.485,3.458,1.105,3.384,2.788c-0.106,1.689-0.054,7.275-0.3,10.802c0.881-0.335,1.324-0.914,2.396-1.124
		c1.407-0.2,2.269,0.878,2.243,2.6c-0.074,1.414-0.88,2.435-1.559,2.798c-1.037,0.545-2.227,0.89-2.91,1.147
		c-0.09,1.365-0.327,8.806-0.24,10.854c-0.031,2.129-0.194,9.206-0.264,10.331c-0.129,1.068-1.433,2.576-3.172,2.919
		c-2.141,0.32-3.647-0.132-3.815-1.324c-0.025-1.227,0.172-7.263,0.355-9.848c0.182-2.587,0.339-9.417,0.441-10.98
		C189.093,463.481,188.097,463.79,187.091,463.977z"/>
	<path fill="#FFFFFF" d="M204.836,460.977c-1.204,0.142-1.887-0.909-1.852-1.834c0.135-1.475,0.771-3.088,2.31-3.406
		c0.871-0.16,1.698-0.654,2.434-0.789c0.31-4.62-0.315-8.042-0.017-11.708c0.198-2.013,1.353-4.209,3.565-4.726
		c2.483-0.417,3.442,1.303,3.362,3.073c-0.115,1.772-0.081,7.632-0.336,11.282c0.88-0.32,1.324-0.907,2.393-1.097
		c1.404-0.165,2.262,0.98,2.231,2.758c-0.077,1.458-0.883,2.483-1.562,2.841c-1.034,0.529-2.226,0.853-2.907,1.102
		c-0.093,1.402-0.34,8.988-0.255,11.06c-0.034,2.149-0.194,9.221-0.264,10.335c-0.128,1.057-1.427,2.516-3.164,2.817
		c-2.137,0.269-3.645-0.207-3.81-1.391c-0.028-1.212,0.169-7.228,0.354-9.827c0.182-2.604,0.348-9.567,0.456-11.169
		C206.833,460.521,205.841,460.81,204.836,460.977z"/>
	<path fill="#FFFFFF" d="M233.711,474.86c-3.015,3.098-7.387,4.7-10.591,5.148c-3.202,0.363-4.857-0.171-4.828-2.371
		c0.336-3.902,3.184-7.532,6.993-11.065c3.086-3.059,6.522-6.061,7.452-6.92c0.571-0.515,1.146-0.862,1.616-1.002
		c-0.171-2.418-0.842-4.992-2.909-4.832c-1.869,0.311-4.487,2.368-5.673,3.745c-0.184,0.229-1.125,1.52-1.793,1.653
		c-1.134,0.104-2.752-0.808-2.678-2.787c0.104-1.115,0.583-1.911,1.221-2.578c2.105-1.95,8.411-5.971,10.816-6.418
		c2.071-0.257,5.667,0.227,7.45,10.998c0.8,4.346,0.447,10.236,0.356,11.471c-0.103,1.3-0.565,4.77-1.631,7.19
		c-0.386,0.76-2.321,1.278-3.055,1.37c-1.132,0.11-3.133,0.098-3.075-1.781C233.493,476.068,233.599,475.479,233.711,474.86z
		 M226.903,470.663c-1.241,1.716-1.465,2.506-1.552,3.565c-0.046,0.932,0.51,1.338,1.511,1.24c3-0.451,4.914-2.966,5.587-3.46
		c0.973-0.614,1.872-1.142,1.744-0.995c0.155-2.064,0.354-4.737,0.368-7.449C232.598,465.076,228.938,467.986,226.903,470.663z"/>
	<path fill="#FFFFFF" d="M266.234,467.355c-0.161,2.429,0.239,3.609,2.495,3.515c2.326-0.212,4.396-1.639,5.563-2.294
		c1.082-0.684,2.956-3.246,4.816-3.453c1.856-0.059,2.836,0.925,2.805,1.966c-0.673,3.896-10.126,7.616-15.052,8.142
		c-6.765,0.268-7.745-2.937-7.544-6.35c1.414-12.824,13.205-24.195,15.661-24.745c1.726-0.097,2.849,0.645,2.698,3.372
		c-0.17,2.024-0.717,4.019-2.53,4.623C269.857,454.036,266.691,462.68,266.234,467.355z"/>
	<path fill="#FFFFFF" d="M298.488,470.306c-2.999,2.872-7.342,4.104-10.526,4.287c-3.182,0.099-4.828-0.553-4.8-2.746
		c0.334-3.879,3.169-7.361,6.966-10.698c3.073-2.906,6.5-5.746,7.426-6.568c0.569-0.487,1.139-0.803,1.608-0.906
		c-0.162-2.555-0.821-5.363-2.867-5.395c-1.86,0.147-4.468,2.092-5.65,3.445c-0.187,0.228-1.125,1.51-1.788,1.59
		c-1.125,0.006-2.729-1.115-2.645-3.233c0.107-1.188,0.589-1.999,1.227-2.656c2.104-1.897,8.378-5.59,10.771-5.814
		c2.057-0.054,5.609,1.004,7.344,12.42c0.779,4.614,0.418,10.612,0.327,11.861c-0.106,1.313-0.564,4.788-1.626,7.119
		c-0.382,0.731-2.306,1.089-3.036,1.12c-1.125,0.017-3.114-0.153-3.057-2.024C298.271,471.502,298.376,470.918,298.488,470.306z
		 M291.726,465.494c-1.235,1.649-1.459,2.433-1.547,3.496c-0.043,0.937,0.509,1.392,1.501,1.374
		c2.988-0.214,4.886-2.599,5.556-3.043c0.967-0.541,1.865-1.013,1.734-0.869c0.157-2.088,0.361-4.816,0.381-7.625
		C297.396,460.225,293.753,462.925,291.726,465.494z"/>
	<path fill="#FFFFFF" d="M310.061,451.488c-1.189-0.027-1.857-1.303-1.814-2.329c0.146-1.628,0.786-3.35,2.312-3.449
		c0.864-0.032,1.682-0.453,2.411-0.481c0.346-5.154-0.221-9.271,0.123-13.55c0.226-2.354,1.386-4.739,3.575-4.858
		c2.441,0.05,3.368,2.305,3.266,4.349c-0.132,2.043-0.173,8.791-0.453,12.835c0.869-0.211,1.311-0.789,2.372-0.818
		c1.382,0.053,2.217,1.481,2.18,3.428c-0.091,1.596-0.888,2.585-1.563,2.867c-1.027,0.414-2.205,0.584-2.881,0.751
		c-0.102,1.517-0.39,9.615-0.31,11.791c-0.04,2.241-0.208,9.41-0.276,10.508c-0.129,1.038-1.407,2.301-3.131,2.372
		c-2.115-0.016-3.608-0.679-3.774-1.865c-0.028-1.205,0.172-7.252,0.362-9.937c0.188-2.688,0.397-10.159,0.511-11.905
		C312.036,451.296,311.053,451.464,310.061,451.488z"/>
	<path fill="#FFFFFF" d="M362.923,460.08c0.331-5.842-0.335-10.508-1.819-10.773c-2.718,0.121-7.322,6.637-7.822,10.98
		c-0.198,2.681-0.319,6.061-0.142,7.854c0.221,1.535,0.615,3.476,0.541,4.756c-0.144,1.336-1.2,1.924-2.458,1.963
		c-2.964-0.125-3.153-0.519-3.558-1.332c-0.509-1.881-1.121-12.18-1.217-15.406c0.052-6.604-0.733-21.432-0.079-31.304
		c0.645-7.645,2.205-10.197,5.637-10.073c2.029,0.211,3.031,2.438,2.884,5.149c-0.218,2.713-0.787,6.374-1.345,13.594
		c-0.341,4.976-0.115,11.353-0.324,16.223c1.037-3.318,5.561-8.832,11.372-8.689c3.983,0.48,6.114,6.758,5.377,18.085
		c-0.188,2.158-1.222,7.995-1.498,10.533c-0.162,1.688-1.106,3.125-4.207,3.03c-2.025-0.263-3.004-1.272-2.941-2.703
		C361.516,469.756,362.463,465.828,362.923,460.08z"/>
	<path fill="#FFFFFF" d="M391.187,433.235c1.918-3.912,3.142-8.312,4.729-8.243c2.139,0.43,3.632,3.518,3.595,5.098
		c-0.116,0.944-1.345,4.482-2.943,7.537c-1.478,2.336-4.419,4.588-5.479,4.567c-1.503-0.198-2.794-1.239-2.722-3.065
		C388.581,437.307,390.472,434.586,391.187,433.235z"/>
	<path fill="#FFFFFF" d="M396.169,466.369c-0.188,3.387,1.188,5.257,2.096,5.419c0.923,0.056,2.168-0.599,4.009-2.108
		c1.121-0.947,2.663-2.582,4.399-3.873c1.118-0.78,1.729-1.155,2.584-1.081c1.567,0.204,2.146,0.964,2.075,2.261
		c-0.349,2.373-4.655,4.87-7.216,6.351c-1.378,0.806-6.672,4.021-8.323,4.016c-4.299-0.632-5.878-6.058-5.637-10.396
		c0.001-0.022,0.003-0.043,0.005-0.065c-0.345,0.104-0.636,0.141-1.227,0.094c-0.583-0.093-1.107-1.181-1.073-1.938
		c0.165-1.918,0.695-2.292,2.67-3.068c0.037-0.501,0.072-0.979,0.111-1.48c0.801-8.814,4.522-15.598,6.377-15.659
		c7.045,1.038,11.12,7.339,11.1,10.272c-0.153,2.061-0.205,4.035-2.732,5.604c-2.021,1.171-7.991,3.838-9.139,4.595
		C396.221,465.673,396.196,466.006,396.169,466.369z M396.608,459.675c1.243-0.62,4.861-2.097,5.918-2.739
		c0.117-2.4-1.149-4.409-3.303-4.718C398.098,452.298,396.837,457.144,396.608,459.675z"/>
	<path fill="#FFFFFF" d="M427.561,478.485c0.082-0.905,1.289-12.567,1.376-15.725c0.054-2.859-0.453-6.292-2.13-6.671
		c-1.784-0.075-5.854,3.983-6.367,8.712c-0.4,6.357,1.096,10.847,0.95,13.818c-0.199,1.295-2.661,1.641-3.583,1.558
		c-1.699-0.23-3.027-0.921-3.396-1.772c-0.467-1.963-0.662-8.172-0.697-10.353c0.018-6.867-0.768-11.308-0.594-14.287
		c0.287-2.407,2.75-3.685,3.737-3.611c2.354,0.348,3.631,1.096,3.745,6.526c2.029-3.397,5.453-6.523,8.805-6.137
		c2.344,0.434,4.421,2.231,5.113,5.401c2.351-2.822,6.751-4.142,10.092-3.618c3.219,0.795,4.604,6.107,4.64,9.976
		c-0.009,2.682-0.107,7.264-0.245,10.083c-0.135,2.816,0.051,5.903-0.062,7.645c-0.169,1.731-1.167,3.146-4.249,2.728
		c-3.058-0.549-3.361-2-3.254-3.664c0.286-3.701,1.047-10.649,1.311-14.005c0.214-2.933,0.44-7.033-1.614-7.544
		c-2.098-0.302-3.241,0.554-5.807,2.959c-0.032,0.299-0.092,7.817-0.207,10.433c-0.139,2.812-0.13,5.896-0.251,7.61
		c-0.16,1.708-0.976,3.08-3.996,2.78C428.135,480.91,427.474,480.114,427.561,478.485z"/>
	<path fill="#FFFFFF" d="M477.035,485.093c-2.958,2.36-7.23,2.731-10.369,2.177c-3.119-0.639-4.734-1.775-4.697-4.087
		c0.35-4.043,3.129-6.854,6.852-9.187c3.012-2.081,6.359-3.859,7.261-4.379c0.558-0.306,1.113-0.449,1.573-0.433
		c-0.181-2.296-0.874-4.821-2.871-5.342c-1.839-0.319-4.368,0.725-5.515,1.638c-0.222,0.191-1.087,1.075-1.743,0.992
		c-1.102-0.257-2.69-1.654-2.626-3.482c0.095-1.018,0.559-1.598,1.178-2.009c2.036-1.116,8.133-2.584,10.496-2.163
		c2.011,0.47,5.558,1.745,7.364,12.161c0.807,4.255,0.463,9.999,0.373,11.24c-0.107,1.302-0.572,4.83-1.631,7.166
		c-0.386,0.729-2.27,0.669-2.991,0.529c-1.103-0.25-3.053-0.952-2.986-2.964C476.815,486.323,476.922,485.721,477.035,485.093z
		 M470.399,478.599c-1.217,1.366-1.439,2.122-1.524,3.203c-0.047,0.956,0.495,1.57,1.47,1.778c2.95,0.467,4.81-1.582,5.47-1.885
		c0.954-0.332,1.851-0.617,1.705-0.488c0.153-2.076,0.353-4.695,0.357-7.309C475.965,474.756,472.388,476.492,470.399,478.599z"/>
	<path fill="#FFFFFF" d="M492.488,445.426c1.48,0.498,3.368,1.868,3.393,3.526c-0.084,1.725-0.673,4.886-1.008,9.125
		c-0.19,3.527,0.823,15.495,0.793,19.3c0.006,5.04,1.282,11.841,1.208,13.786c-0.201,1.932-1.534,2.511-3.558,2.071
		c-1.877-0.47-4.027-1.47-4.122-3.219c0.001-2.07-0.5-8.233-0.467-14.245c-0.013-6.017-1.463-16.755-0.946-24.94
		C488.241,445.686,489.891,444.671,492.488,445.426z"/>
	<path fill="#FFFFFF" d="M504.79,449.415c1.474,0.521,3.371,1.865,3.401,3.42c-0.072,1.617-0.647,4.57-0.97,8.614
		c-0.174,3.37,0.856,15.066,0.826,18.854c0.01,5.015,1.275,11.947,1.197,13.938c-0.206,1.977-1.535,2.554-3.557,2.069
		c-1.874-0.512-4.023-1.574-4.111-3.366c-0.001-2.116-0.487-8.395-0.458-14.372c-0.015-5.982-1.49-16.483-1-24.227
		C500.553,449.487,502.197,448.616,504.79,449.415z"/>
	<path fill="#FFFFFF" d="M329.453,465.339c-0.16,2.445,0.238,3.67,2.478,3.751c2.315-0.03,4.37-1.309,5.532-1.878
		c1.076-0.604,2.936-3.043,4.79-3.105c1.845,0.09,2.817,1.163,2.786,2.206c-0.671,3.893-10.063,6.881-14.968,7.023
		c-6.717-0.266-7.698-3.562-7.496-7.001c1.422-12.903,13.144-23.58,15.598-23.901c1.713,0.069,2.826,0.941,2.673,3.699
		c-0.172,2.049-0.714,4.021-2.519,4.475C333.062,452.073,329.912,460.633,329.453,465.339z"/>
	<g>
		<path fill="#2D59A9" d="M535.58,491.508c-0.48-0.559-0.811-1.137-1.363-1.582c0.923-1.334,1.335-2.598,1.472-4.498
			c0.059-0.811,0.184-2.188,0.329-3.783c0.298-3.281,0.707-7.775,0.966-12.005c0.238-3.968,0.699-7.524,0.975-9.65
			c0.128-0.988,0.205-1.585,0.236-2.021c0.372-5.182-3.282-9.371-8.5-9.746c-2.188-0.156-4.519,0.683-6.392,2.305
			c-1.862,1.612-3.018,3.755-3.171,5.876c-0.069,0.979-0.063,3.056-0.047,6.643c0.018,3.457,0.038,7.759-0.079,9.382
			c-0.146,2.037-0.291,5.865-0.408,8.94c-0.071,1.88-0.139,3.656-0.176,4.166c-0.103,1.438,0.061,2.487,0.904,3.747
			c-2.393,1.324-3.916,3.763-4.184,6.453c-0.228,2.275,0.396,4.343,1.799,5.979c1.816,2.118,4.689,3.254,8.785,3.473
			c5.263,0.282,10.842-1.944,11.319-6.746C538.254,496.346,537.327,493.547,535.58,491.508z"/>
		<path fill="#FFFFFF" d="M529.358,452.906c2.803,0.202,4.325,2.324,4.152,4.727c-0.077,1.068-0.869,5.975-1.215,11.72
			c-0.384,6.278-1.108,13.203-1.291,15.739c-0.13,1.802-0.969,3.305-3.044,3.264c-2.938-0.058-3.829-2.084-3.719-3.62
			c0.105-1.468,0.213-8.701,0.447-11.971c0.23-3.204-0.013-14.089,0.126-16.025C524.945,454.938,527.29,452.758,529.358,452.906z
			 M527.455,491.85c3.197,0.202,5.803,4.197,5.456,5.993c-0.275,1.428-2.956,2.421-5.756,2.271c-3.8-0.203-5.788-1.435-5.546-3.867
			C521.785,494.47,525.227,491.709,527.455,491.85z"/>
	</g>
</g>
</svg>
